# xmcd CD database file
#
# Track frame offsets:
#	150
#	30530
#	57665
#	85512
#	117070
#	155657
#	189467
#	215487
#	224740
#
# Disc length: 3294 seconds
#
# Revision: 0
# Processed by: cddbd v1.5.1PL0 Copyright (c) Steve Scherf et al.
# Submitted via: CDex 1.51
#
DISCID=7f0cdc09
DTITLE=TOSHIKI NUNOKAWA PROJECT - Ultraman Jazz
DYEAR=1998
DGENRE=Jazz
TTITLE0=ウルトラマンの歌
TTITLE1=ウルトラセブンの歌
TTITLE2=特捜隊の歌
TTITLE3=ウルトラマンレオ
TTITLE4=「ウルトラQ」のテーマ
TTITLE5=MATチームの歌
TTITLE6=進め！ウルトラマン
TTITLE7=帰ってきたウルトラマン
TTITLE8=ウルトラマンの歌（リプライズ）
EXTD=YEAR: 1998
EXTT0=
EXTT1=
EXTT2=
EXTT3=
EXTT4=
EXTT5=
EXTT6=
EXTT7=
EXTT8=
PLAYORDER=
